<svg xmlns="http://www.w3.org/2000/svg" viewBox="0 0 64 64">
  <rect width="64" height="64" rx="14" fill="#111410"/>
  <path d="M7 22c10 0 10 5 20 5s10-5 20-5 10 5 10 5M7 40c10 0 10 5 20 5s10-5 20-5 10 5 10 5" fill="none" stroke="#536762" stroke-width="3"/>
  <path d="M20 13v16m0 10v12M32 14v13m0 17v7M44 13v11m0 18v9M23 34h18" fill="none" stroke="#b7f34b" stroke-width="3" stroke-linecap="round"/>
  <g fill="#f5f2ea"><circle cx="20" cy="13" r="3"/><circle cx="32" cy="14" r="3"/><circle cx="44" cy="13" r="3"/><circle cx="23" cy="34" r="3"/><circle cx="41" cy="34" r="3"/><circle cx="20" cy="51" r="3"/><circle cx="32" cy="51" r="3"/><circle cx="44" cy="51" r="3"/></g>
</svg>
